<svg xmlns="http://www.w3.org/2000/svg" version="1.1" xmlns:xlink="http://www.w3.org/1999/xlink" xmlns:svgjs="http://svgjs.dev/svgjs" width="2000" height="1500" viewBox="0 0 2000 1500"><rect width="2000" height="1500" fill="#ffffff"></rect><g transform="matrix(0.75,0,0,0.75,249.090909090909,310.4813554517832)"><svg viewBox="0 0 396 232" data-background-color="#ffffff" preserveAspectRatio="xMidYMid meet" height="1171" width="2000" xmlns="http://www.w3.org/2000/svg" xmlns:xlink="http://www.w3.org/1999/xlink"><g id="tight-bounds" transform="matrix(1,0,0,1,0.2400000000000091,0.1039858072146842)"><svg viewBox="0 0 395.52 231.79202838557063" height="231.79202838557063" width="395.52"><g><svg viewBox="0 0 395.52 231.79202838557063" height="231.79202838557063" width="395.52"><g><svg viewBox="0 0 395.52 231.79202838557063" height="231.79202838557063" width="395.52"><g id="textblocktransform"><svg viewBox="0 0 395.52 231.79202838557063" height="231.79202838557063" width="395.52" id="textblock"><g><svg viewBox="0 0 395.52 231.79202838557063" height="231.79202838557063" width="395.52"><g transform="matrix(1,0,0,1,0,0)"><svg width="395.52" viewBox="1.2 -38.55 84.53999999999999 49.55" height="231.79202838557063" data-palette-color="#7b8001"><g class="wordmark-text-0" data-fill-palette-color="primary" id="text-0"><path d="M1.2-18.95L1.2-18.95Q1.2-24.1 3.1-28.1 5-32.1 8.7-34.4 12.4-36.7 17.75-36.7L17.75-36.7Q23.1-36.7 26.78-34.4 30.45-32.1 32.35-28.1 34.25-24.1 34.25-18.95L34.25-18.95Q34.25-14.4 32.8-10.78 31.35-7.15 28.53-4.78 25.7-2.4 21.55-1.6L21.55-1.6Q21.8-0.6 22.7-0.2 23.6 0.2 25.35 0.2L25.35 0.2Q26.95 0.2 28.28 0.7 29.6 1.2 30.43 2.38 31.25 3.55 31.25 5.6L31.25 5.6Q31.25 7.6 30.43 8.8 29.6 10 28.28 10.5 26.95 11 25.35 11L25.35 11Q22.45 11 20.55 9.78 18.65 8.55 17.73 6.45 16.8 4.35 16.8 1.85L16.8 1.85 16.8-1.25Q11.75-1.5 8.28-3.8 4.8-6.1 3-10 1.2-13.9 1.2-18.95ZM17.75-14L17.75-14Q22.1-14 24.28-14.8 26.45-15.6 27.2-16.9 27.95-18.2 27.95-19.7L27.95-19.7Q27.95-21.25 27.2-22.48 26.45-23.7 24.28-24.45 22.1-25.2 17.75-25.2L17.75-25.2Q13.4-25.2 11.2-24.45 9-23.7 8.25-22.48 7.5-21.25 7.5-19.7L7.5-19.7Q7.5-18.2 8.25-16.9 9-15.6 11.2-14.8 13.4-14 17.75-14ZM44.8 0L44.8 0Q41.3 0 39.1-2.65 36.9-5.3 36.85-10.1L36.85-10.1 36.8-21.65Q36.8-23.8 38.12-25.03 39.45-26.25 41.75-26.25L41.75-26.25Q43.95-26.25 45.3-25.03 46.65-23.8 46.65-21.65L46.65-21.65 46.65-11.2Q46.65-7.45 49.6-7.45L49.6-7.45Q51.05-7.45 51.55-8.53 52.05-9.6 52.05-11.3L52.05-11.3 52.05-21.65Q52.05-23.6 53.4-24.93 54.75-26.25 56.9-26.25L56.9-26.25Q59.15-26.25 60.37-24.93 61.6-23.6 61.6-21.65L61.6-21.65 61.6-5.25Q61.6-2.85 60.52-1.43 59.45 0 57.05 0L57.05 0Q54.7 0 53.37-1.43 52.05-2.85 52.05-5.25L52.05-5.25 52.05-6.1 51.15-6.1Q51.15-3.2 49.42-1.6 47.7 0 44.8 0ZM64-31.95L64-31.95Q64-34.1 65.32-35.43 66.65-36.75 69-36.75L69-36.75Q71.5-36.75 72.72-35.45 73.95-34.15 73.95-32L73.95-32Q73.95-29.9 72.72-28.63 71.5-27.35 69-27.35L69-27.35Q66.55-27.35 65.27-28.63 64-29.9 64-31.95ZM69 0L69 0Q66.65 0 65.5-1.3 64.35-2.6 64.35-4.55L64.35-4.55 64.35-21.65Q64.35-23.8 65.5-25.05 66.65-26.3 69-26.3L69-26.3Q71.35-26.3 72.52-25.05 73.7-23.8 73.7-21.75L73.7-21.75 73.7-4.55Q73.7-2.6 72.47-1.3 71.25 0 69 0ZM81.14 0L81.14 0Q78.69 0 77.47-1.3 76.24-2.6 76.24-4.55L76.24-4.55 76.24-33.55Q76.24-35.7 77.47-37.13 78.69-38.55 81.14-38.55L81.14-38.55Q83.34-38.55 84.54-37.13 85.74-35.7 85.74-33.65L85.74-33.65 85.74-4.55Q85.74-2.6 84.54-1.3 83.34 0 81.14 0Z" fill="#7b8001" data-fill-palette-color="primary"></path></g></svg></g></svg></g></svg></g></svg></g></svg></g><defs></defs></svg><rect width="395.52" height="231.79202838557063" fill="none" stroke="none" visibility="hidden"></rect></g></svg></g></svg>